<svg width="57" height="57" viewBox="0 0 57 57" fill="none" xmlns="http://www.w3.org/2000/svg">
<path d="M36.0711 21.9289C34.1823 20.0402 31.6711 19 29 19C26.3289 19 23.8177 20.0402 21.9289 21.9289C20.0402 23.8177 19 26.3289 19 29C19 31.6711 20.0402 34.1823 21.9289 36.0711C23.8176 37.9599 26.3289 39 29 39C31.6711 39 34.1823 37.9598 36.0711 36.0711C37.9598 34.1823 39 31.6711 39 29C39 26.3289 37.9598 23.8177 36.0711 21.9289Z" fill="#FFD60A"/>
<path d="M29 45V55" stroke="#FFD60A" stroke-width="3" stroke-linecap="round" stroke-linejoin="round"/>
<path d="M29 2V12" stroke="#FFD60A" stroke-width="3" stroke-linecap="round" stroke-linejoin="round"/>
<path d="M2.42859 28.5714H12.4286" stroke="#FFD60A" stroke-width="3" stroke-linecap="round" stroke-linejoin="round"/>
<path d="M45.4286 28.5714H55.4286" stroke="#FFD60A" stroke-width="3" stroke-linecap="round" stroke-linejoin="round"/>
</svg>
